<svg width="24" height="24" viewBox="0 0 24 24" fill="none" xmlns="http://www.w3.org/2000/svg">
<path d="M12.0002 12.0002V20.5002M12.0002 12.0002L4.5 7.78147M12.0002 12.0002L19.2627 7.91496M20.25 8.52929V15.4711C20.25 16.1937 19.8603 16.8601 19.2305 17.2143L12.9805 20.7299C12.3717 21.0724 11.6283 21.0724 11.0195 20.7299L4.76948 17.2143C4.13972 16.8601 3.75 16.1937 3.75 15.4711V8.52929C3.75 7.80675 4.13972 7.14038 4.76948 6.78614L11.0195 3.27052C11.6283 2.92805 12.3717 2.92805 12.9805 3.27052L19.2305 6.78614C19.8603 7.14038 20.25 7.80675 20.25 8.52929Z" stroke="black" stroke-width="1.5" stroke-linecap="round" stroke-linejoin="round"/>
</svg>
