<svg width="16" height="16" viewBox="0 0 16 16" fill="none" xmlns="http://www.w3.org/2000/svg">
<path d="M14.6666 3.43398V5.23399C14.6666 6.73399 14.0666 7.33398 12.5666 7.33398H10.7666C9.26663 7.33398 8.66663 6.73399 8.66663 5.23399V3.43398C8.66663 1.93398 9.26663 1.33398 10.7666 1.33398H12.5666C14.0666 1.33398 14.6666 1.93398 14.6666 3.43398Z" stroke="#292D32" stroke-linecap="round" stroke-linejoin="round"/>
<path d="M7.33337 10.766V12.566C7.33337 14.066 6.73337 14.666 5.23337 14.666H3.43338C1.93338 14.666 1.33337 14.066 1.33337 12.566V10.766C1.33337 9.26601 1.93338 8.66602 3.43338 8.66602H5.23337C6.73337 8.66602 7.33337 9.26601 7.33337 10.766Z" stroke="#292D32" stroke-linecap="round" stroke-linejoin="round"/>
<path d="M11.5868 7.33211V9.07878C11.5868 10.8721 10.8735 11.5854 9.08012 11.5854H7.33345V10.7654C7.33345 9.26544 6.73345 8.66545 5.23345 8.66545H4.41345V6.91878C4.41345 5.12545 5.12678 4.41211 6.92012 4.41211H8.66678V5.23212C8.66678 6.73212 9.26678 7.33211 10.7668 7.33211H11.5868Z" stroke="#292D32" stroke-linecap="round" stroke-linejoin="round"/>
</svg>
