<svg width="16" height="16" viewBox="0 0 16 16" fill="none" xmlns="http://www.w3.org/2000/svg">
<path d="M6.57988 3.77942L4.29988 5.16609L3.25988 3.45943C2.87988 2.83276 3.07988 2.0061 3.70655 1.6261C4.33321 1.2461 5.15988 1.44608 5.53988 2.07275L6.57988 3.77942Z" stroke="white" stroke-linecap="round" stroke-linejoin="round"/>
<path d="M7.88008 6.109L5.77341 7.38903C4.54674 8.1357 4.17341 9.64236 4.76674 10.8424L6.13341 13.629C6.57341 14.529 7.64008 14.8423 8.49341 14.3157L12.7801 11.709C13.6401 11.189 13.8467 10.1024 13.2534 9.29569L11.4067 6.80236C10.6067 5.72236 9.10675 5.36234 7.88008 6.109Z" stroke="white" stroke-linecap="round" stroke-linejoin="round"/>
<path d="M7.17079 3.40007L3.75439 5.48047L5.14133 7.75807L8.55773 5.67767L7.17079 3.40007Z" stroke="white" stroke-linecap="round" stroke-linejoin="round"/>
<path d="M9.54004 11.207L10.64 13.0137" stroke="white" stroke-linecap="round" stroke-linejoin="round"/>
<path d="M7.8335 12.2461L8.93349 14.0528" stroke="white" stroke-linecap="round" stroke-linejoin="round"/>
<path d="M11.2466 10.168L12.3466 11.9747" stroke="white" stroke-linecap="round" stroke-linejoin="round"/>
</svg>
