<svg width="17" height="19" viewBox="0 0 17 19" fill="none" xmlns="http://www.w3.org/2000/svg">
<g clip-path="url(#clip0_993_42616)">
<path fill-rule="evenodd" clip-rule="evenodd" d="M1 2H4C4.26522 2 4.51957 2.10536 4.70711 2.29289C4.89464 2.48043 5 2.73478 5 3V6C5 6.26522 4.89464 6.51957 4.70711 6.70711C4.51957 6.89464 4.26522 7 4 7H1C0.734784 7 0.48043 6.89464 0.292893 6.70711C0.105357 6.51957 0 6.26522 0 6V3C0 2.73478 0.105357 2.48043 0.292893 2.29289C0.48043 2.10536 0.734784 2 1 2ZM7 2H10C10.2652 2 10.5196 2.10536 10.7071 2.29289C10.8946 2.48043 11 2.73478 11 3V6C11 6.26522 10.8946 6.51957 10.7071 6.70711C10.5196 6.89464 10.2652 7 10 7H7C6.73478 7 6.48043 6.89464 6.29289 6.70711C6.10536 6.51957 6 6.26522 6 6V3C6 2.73478 6.10536 2.48043 6.29289 2.29289C6.48043 2.10536 6.73478 2 7 2ZM13 2H16C16.2652 2 16.5196 2.10536 16.7071 2.29289C16.8946 2.48043 17 2.73478 17 3V6C17 6.26522 16.8946 6.51957 16.7071 6.70711C16.5196 6.89464 16.2652 7 16 7H13C12.7348 7 12.4804 6.89464 12.2929 6.70711C12.1054 6.51957 12 6.26522 12 6V3C12 2.73478 12.1054 2.48043 12.2929 2.29289C12.4804 2.10536 12.7348 2 13 2ZM7 8H10C10.2652 8 10.5196 8.10536 10.7071 8.29289C10.8946 8.48043 11 8.73478 11 9V12C11 12.2652 10.8946 12.5196 10.7071 12.7071C10.5196 12.8946 10.2652 13 10 13H7C6.73478 13 6.48043 12.8946 6.29289 12.7071C6.10536 12.5196 6 12.2652 6 12V9C6 8.73478 6.10536 8.48043 6.29289 8.29289C6.48043 8.10536 6.73478 8 7 8ZM1 8H4C4.26522 8 4.51957 8.10536 4.70711 8.29289C4.89464 8.48043 5 8.73478 5 9V12C5 12.2652 4.89464 12.5196 4.70711 12.7071C4.51957 12.8946 4.26522 13 4 13H1C0.734784 13 0.48043 12.8946 0.292893 12.7071C0.105357 12.5196 0 12.2652 0 12V9C0 8.73478 0.105357 8.48043 0.292893 8.29289C0.48043 8.10536 0.734784 8 1 8ZM1 14H4C4.26522 14 4.51957 14.1054 4.70711 14.2929C4.89464 14.4804 5 14.7348 5 15V18C5 18.2652 4.89464 18.5196 4.70711 18.7071C4.51957 18.8946 4.26522 19 4 19H1C0.734784 19 0.48043 18.8946 0.292893 18.7071C0.105357 18.5196 0 18.2652 0 18V15C0 14.7348 0.105357 14.4804 0.292893 14.2929C0.48043 14.1054 0.734784 14 1 14ZM0.5 0H4.5C4.63261 0 4.75979 0.0526784 4.85355 0.146447C4.94732 0.240215 5 0.367392 5 0.5C5 0.632608 4.94732 0.759785 4.85355 0.853553C4.75979 0.947322 4.63261 1 4.5 1H0.5C0.367392 1 0.240215 0.947322 0.146447 0.853553C0.0526784 0.759785 0 0.632608 0 0.5C0 0.367392 0.0526784 0.240215 0.146447 0.146447C0.240215 0.0526784 0.367392 0 0.5 0ZM6.5 0H10.5C10.6326 0 10.7598 0.0526784 10.8536 0.146447C10.9473 0.240215 11 0.367392 11 0.5C11 0.632608 10.9473 0.759785 10.8536 0.853553C10.7598 0.947322 10.6326 1 10.5 1H6.5C6.36739 1 6.24021 0.947322 6.14645 0.853553C6.05268 0.759785 6 0.632608 6 0.5C6 0.367392 6.05268 0.240215 6.14645 0.146447C6.24021 0.0526784 6.36739 0 6.5 0ZM12.5 0H16.5C16.6326 0 16.7598 0.0526784 16.8536 0.146447C16.9473 0.240215 17 0.367392 17 0.5C17 0.632608 16.9473 0.759785 16.8536 0.853553C16.7598 0.947322 16.6326 1 16.5 1H12.5C12.3674 1 12.2402 0.947322 12.1464 0.853553C12.0527 0.759785 12 0.632608 12 0.5C12 0.367392 12.0527 0.240215 12.1464 0.146447C12.2402 0.0526784 12.3674 0 12.5 0Z" fill="black"/>
</g>
<defs>
<clipPath id="clip0_993_42616">
<rect width="17" height="19" fill="white"/>
</clipPath>
</defs>
</svg>
