<svg width="16" height="17" viewBox="0 0 16 17" fill="none" xmlns="http://www.w3.org/2000/svg">
<path d="M10.6667 9.10065V11.9007C10.6667 14.234 9.73337 15.1673 7.40004 15.1673H4.60004C2.26671 15.1673 1.33337 14.234 1.33337 11.9007V9.10065C1.33337 6.76732 2.26671 5.83398 4.60004 5.83398H7.40004C9.73337 5.83398 10.6667 6.76732 10.6667 9.10065Z" fill="#737373" fill-opacity="0.15" stroke="#737373" stroke-linecap="round" stroke-linejoin="round"/>
<path d="M14.6667 5.10065V7.90065C14.6667 10.234 13.7334 11.1673 11.4 11.1673H10.6667V9.10065C10.6667 6.76732 9.73337 5.83398 7.40004 5.83398H5.33337V5.10065C5.33337 2.76732 6.26671 1.83398 8.60004 1.83398H11.4C13.7334 1.83398 14.6667 2.76732 14.6667 5.10065Z" stroke="#737373" stroke-linecap="round" stroke-linejoin="round"/>
</svg>
