<svg width="16" height="17" viewBox="0 0 16 17" fill="none" xmlns="http://www.w3.org/2000/svg">
<path d="M6 7.66699C6.08924 7.66699 6.16699 7.74475 6.16699 7.83398V11.4316L7.21582 10.3828C7.279 10.3198 7.38807 10.3197 7.45117 10.3828C7.51428 10.4459 7.51417 10.555 7.45117 10.6182L6.11719 11.9512C6.08731 11.981 6.0396 12.001 6 12.001C5.98321 12.001 5.96544 11.9983 5.93066 11.9844L5.92871 11.9834L5.8916 11.9619C5.8576 11.9336 5.83301 11.8873 5.83301 11.834V7.83398C5.83301 7.74475 5.91076 7.66699 6 7.66699Z" fill="#737373" fill-opacity="0.15" stroke="#737373" stroke-width="0.666667"/>
<path d="M4.54919 10.3828C4.61235 10.3197 4.72139 10.3197 4.78455 10.3828L6.11755 11.7158C6.18071 11.779 6.18071 11.888 6.11755 11.9512C6.08346 11.9853 6.04326 11.9999 6.00037 12C5.95733 12 5.9164 11.9854 5.8822 11.9512L4.54919 10.6182C4.48604 10.555 4.48604 10.446 4.54919 10.3828Z" fill="#737373" stroke="#737373" stroke-width="0.666667"/>
<path d="M10 15.6673H6.00004C2.38004 15.6673 0.833374 14.1207 0.833374 10.5007V6.50065C0.833374 2.88065 2.38004 1.33398 6.00004 1.33398H9.33337C9.60671 1.33398 9.83337 1.56065 9.83337 1.83398C9.83337 2.10732 9.60671 2.33398 9.33337 2.33398H6.00004C2.92671 2.33398 1.83337 3.42732 1.83337 6.50065V10.5007C1.83337 13.574 2.92671 14.6673 6.00004 14.6673H10C13.0734 14.6673 14.1667 13.574 14.1667 10.5007V7.16732C14.1667 6.89398 14.3934 6.66732 14.6667 6.66732C14.94 6.66732 15.1667 6.89398 15.1667 7.16732V10.5007C15.1667 14.1207 13.62 15.6673 10 15.6673Z" fill="#737373"/>
<path d="M14.6667 7.66633H12C9.72004 7.66633 8.83337 6.77967 8.83337 4.49967V1.833C8.83337 1.633 8.95337 1.44633 9.14004 1.373C9.32671 1.293 9.54004 1.33967 9.68671 1.47967L15.02 6.813C15.16 6.953 15.2067 7.173 15.1267 7.35967C15.0467 7.54633 14.8667 7.66633 14.6667 7.66633ZM9.83337 3.03967V4.49967C9.83337 6.21967 10.28 6.66633 12 6.66633H13.46L9.83337 3.03967Z" fill="#737373"/>
</svg>
