<svg width="20" height="20" viewBox="0 0 20 20" fill="none" xmlns="http://www.w3.org/2000/svg">
<path d="M8.83276 5.90137H10.9246C12.0468 5.90137 12.983 6.84988 12.9832 8.05078C12.9832 8.16224 12.8866 8.25962 12.7751 8.25977C12.6636 8.25977 12.5662 8.16233 12.5662 8.05078C12.566 7.12471 11.8575 6.31738 10.9246 6.31738H8.83276C8.03337 6.31765 7.4247 7.01653 7.42456 7.80078C7.42456 8.20324 7.49514 8.53495 7.70093 8.78809C7.90033 9.03314 8.17724 9.13709 8.38647 9.21094L11.7449 10.3936L11.7468 10.3945C12.0431 10.4971 12.3473 10.6454 12.5789 10.9043C12.7739 11.1225 12.9438 11.4486 12.9832 11.9668L12.9919 12.2012C12.9835 13.2623 12.1538 14.1005 11.1667 14.1006H9.07495C7.95266 14.1006 7.01642 13.1521 7.01636 11.9512C7.01636 11.8396 7.11379 11.7432 7.22534 11.7432C7.3367 11.7434 7.43335 11.8398 7.43335 11.9512C7.43342 12.8773 8.14197 13.6846 9.07495 13.6846H11.1667C11.9663 13.6845 12.5749 12.9856 12.575 12.2012C12.575 11.7987 12.5053 11.467 12.2996 11.2139C12.1002 10.9687 11.8233 10.8649 11.614 10.791H11.613L8.25464 9.6084L8.25269 9.60742L8.03003 9.52051C7.80884 9.42363 7.59418 9.29261 7.42065 9.09863C7.1976 8.84925 7.00854 8.45784 7.00854 7.80078C7.00868 6.73586 7.84164 5.90162 8.83276 5.90137Z" fill="#292D32" stroke="#292D32" stroke-width="0.833333"/>
<path d="M10 4.79199C10.1115 4.79199 10.208 4.88845 10.208 5V15C10.208 15.1115 10.1115 15.208 10 15.208C9.88845 15.208 9.79199 15.1115 9.79199 15V5C9.79199 4.88845 9.88845 4.79199 10 4.79199Z" fill="#292D32" stroke="#292D32" stroke-width="0.833333"/>
</svg>
