<svg width="16" height="16" viewBox="0 0 16 16" fill="none" xmlns="http://www.w3.org/2000/svg">
<mask id="path-1-inside-1_318_33720" fill="white">
<path d="M8.93332 11.6134H7.25998C6.16665 11.6134 5.27998 10.6934 5.27998 9.56005C5.27998 9.28672 5.50665 9.06005 5.77998 9.06005C6.05332 9.06005 6.27998 9.28672 6.27998 9.56005C6.27998 10.1401 6.71998 10.6134 7.25998 10.6134H8.93332C9.36665 10.6134 9.72665 10.2267 9.72665 9.76005C9.72665 9.18005 9.51998 9.06672 9.17998 8.94672L6.49332 8.00005C5.97332 7.82005 5.27332 7.43339 5.27332 6.24005C5.27332 5.21339 6.07998 4.38672 7.06665 4.38672H8.73998C9.83332 4.38672 10.72 5.30672 10.72 6.44005C10.72 6.71339 10.4933 6.94005 10.22 6.94005C9.94665 6.94005 9.71998 6.71339 9.71998 6.44005C9.71998 5.86005 9.27998 5.38672 8.73998 5.38672H7.06665C6.63332 5.38672 6.27332 5.77339 6.27332 6.24005C6.27332 6.82005 6.47998 6.93339 6.81998 7.05339L9.50665 8.00005C10.0266 8.18005 10.7266 8.56672 10.7266 9.76005C10.72 10.7801 9.91998 11.6134 8.93332 11.6134Z"/>
</mask>
<path d="M8.93332 11.6134H7.25998C6.16665 11.6134 5.27998 10.6934 5.27998 9.56005C5.27998 9.28672 5.50665 9.06005 5.77998 9.06005C6.05332 9.06005 6.27998 9.28672 6.27998 9.56005C6.27998 10.1401 6.71998 10.6134 7.25998 10.6134H8.93332C9.36665 10.6134 9.72665 10.2267 9.72665 9.76005C9.72665 9.18005 9.51998 9.06672 9.17998 8.94672L6.49332 8.00005C5.97332 7.82005 5.27332 7.43339 5.27332 6.24005C5.27332 5.21339 6.07998 4.38672 7.06665 4.38672H8.73998C9.83332 4.38672 10.72 5.30672 10.72 6.44005C10.72 6.71339 10.4933 6.94005 10.22 6.94005C9.94665 6.94005 9.71998 6.71339 9.71998 6.44005C9.71998 5.86005 9.27998 5.38672 8.73998 5.38672H7.06665C6.63332 5.38672 6.27332 5.77339 6.27332 6.24005C6.27332 6.82005 6.47998 6.93339 6.81998 7.05339L9.50665 8.00005C10.0266 8.18005 10.7266 8.56672 10.7266 9.76005C10.72 10.7801 9.91998 11.6134 8.93332 11.6134Z" fill="#292D32"/>
<path d="M9.17998 8.94672L9.67921 7.53223L9.67848 7.53197L9.17998 8.94672ZM6.49332 8.00005L6.99182 6.58529L6.98398 6.58257L6.49332 8.00005ZM6.81998 7.05339L6.32075 8.46787L6.32149 8.46813L6.81998 7.05339ZM9.50665 8.00005L9.00815 9.41482L9.01598 9.41753L9.50665 8.00005ZM10.7266 9.76005L12.2266 9.76986V9.76005H10.7266ZM8.93332 11.6134V10.1134H7.25998V11.6134V13.1134H8.93332V11.6134ZM7.25998 11.6134V10.1134C7.04626 10.1134 6.77998 9.91708 6.77998 9.56005H5.27998H3.77998C3.77998 11.4697 5.28704 13.1134 7.25998 13.1134V11.6134ZM5.27998 9.56005H6.77998C6.77998 10.1151 6.33508 10.5601 5.77998 10.5601V9.06005V7.56005C4.67822 7.56005 3.77998 8.45829 3.77998 9.56005H5.27998ZM5.77998 9.06005V10.5601C5.22489 10.5601 4.77998 10.1151 4.77998 9.56005H6.27998H7.77998C7.77998 8.45829 6.88174 7.56005 5.77998 7.56005V9.06005ZM6.27998 9.56005H4.77998C4.77998 10.8643 5.79109 12.1134 7.25998 12.1134V10.6134V9.11339C7.4431 9.11339 7.58535 9.19612 7.66582 9.28262C7.74474 9.36747 7.77998 9.46846 7.77998 9.56005H6.27998ZM7.25998 10.6134V12.1134H8.93332V10.6134V9.11339H7.25998V10.6134ZM8.93332 10.6134V12.1134C10.2956 12.1134 11.2266 10.9509 11.2266 9.76005H9.72665H8.22665C8.22665 9.60586 8.28598 9.45641 8.39413 9.34014C8.50302 9.22307 8.69024 9.11339 8.93332 9.11339V10.6134ZM9.72665 9.76005H11.2266C11.2266 9.32618 11.156 8.74055 10.7447 8.23468C10.3564 7.757 9.83782 7.58821 9.67921 7.53223L9.17998 8.94672L8.68075 10.3612C8.75408 10.3871 8.73572 10.3843 8.69185 10.3604C8.63363 10.3287 8.52258 10.2571 8.4169 10.1271C8.19399 9.85289 8.22665 9.61392 8.22665 9.76005H9.72665ZM9.17998 8.94672L9.67848 7.53197L6.99181 6.58531L6.49332 8.00005L5.99482 9.4148L8.68149 10.3615L9.17998 8.94672ZM6.49332 8.00005L6.98398 6.58257C6.82733 6.52835 6.79996 6.4929 6.80636 6.50006C6.81348 6.50803 6.81106 6.51008 6.80372 6.48948C6.79519 6.46557 6.77332 6.39089 6.77332 6.24005H5.27332H3.77332C3.77332 7.1563 4.05326 7.92199 4.57027 8.50004C5.05668 9.04387 5.6393 9.29176 6.00265 9.41753L6.49332 8.00005ZM5.27332 6.24005H6.77332C6.77332 5.99864 6.95093 5.88672 7.06665 5.88672V4.38672V2.88672C5.20903 2.88672 3.77332 4.42813 3.77332 6.24005H5.27332ZM7.06665 4.38672V5.88672H8.73998V4.38672V2.88672H7.06665V4.38672ZM8.73998 4.38672V5.88672C8.95371 5.88672 9.21998 6.08302 9.21998 6.44005H10.72H12.22C12.22 4.53042 10.7129 2.88672 8.73998 2.88672V4.38672ZM10.72 6.44005H9.21998C9.21998 5.88496 9.66489 5.44005 10.22 5.44005V6.94005V8.44005C11.3217 8.44005 12.22 7.54181 12.22 6.44005H10.72ZM10.22 6.94005V5.44005C10.7751 5.44005 11.22 5.88496 11.22 6.44005H9.71998H8.21998C8.21998 7.54181 9.11822 8.44005 10.22 8.44005V6.94005ZM9.71998 6.44005H11.22C11.22 5.1358 10.2089 3.88672 8.73998 3.88672V5.38672V6.88672C8.55687 6.88672 8.41461 6.80399 8.33415 6.71748C8.25522 6.63263 8.21998 6.53164 8.21998 6.44005H9.71998ZM8.73998 5.38672V3.88672H7.06665V5.38672V6.88672H8.73998V5.38672ZM7.06665 5.38672V3.88672C5.70439 3.88672 4.77332 5.04916 4.77332 6.24005H6.27332H7.77332C7.77332 6.39424 7.71398 6.54369 7.60583 6.65997C7.49695 6.77703 7.30973 6.88672 7.06665 6.88672V5.38672ZM6.27332 6.24005H4.77332C4.77332 6.67392 4.84399 7.25956 5.25523 7.76542C5.64356 8.2431 6.16214 8.41189 6.32075 8.46787L6.81998 7.05339L7.31921 5.6389C7.24588 5.61302 7.26425 5.61582 7.30812 5.63969C7.36633 5.67138 7.47739 5.74302 7.58306 5.87302C7.80597 6.14721 7.77332 6.38618 7.77332 6.24005H6.27332ZM6.81998 7.05339L6.32149 8.46813L9.00815 9.4148L9.50665 8.00005L10.0051 6.58531L7.31848 5.63864L6.81998 7.05339ZM9.50665 8.00005L9.01598 9.41753C9.17264 9.47176 9.20001 9.5072 9.19361 9.50004C9.18648 9.49208 9.1889 9.49003 9.19625 9.51062C9.20477 9.53454 9.22665 9.60922 9.22665 9.76005H10.7266H12.2266C12.2266 8.8438 11.9467 8.07811 11.4297 7.50006C10.9433 6.95624 10.3607 6.70835 9.99731 6.58257L9.50665 8.00005ZM10.7266 9.76005L9.22668 9.75025C9.22501 10.0053 9.03697 10.1134 8.93332 10.1134V11.6134V13.1134C10.803 13.1134 12.215 11.5548 12.2266 9.76986L10.7266 9.76005Z" fill="#292D32" mask="url(#path-1-inside-1_318_33720)"/>
<mask id="path-3-inside-2_318_33720" fill="white">
<path d="M8 12.5C7.72667 12.5 7.5 12.2733 7.5 12V4C7.5 3.72667 7.72667 3.5 8 3.5C8.27333 3.5 8.5 3.72667 8.5 4V12C8.5 12.2733 8.27333 12.5 8 12.5Z"/>
</mask>
<path d="M8 12.5C7.72667 12.5 7.5 12.2733 7.5 12V4C7.5 3.72667 7.72667 3.5 8 3.5C8.27333 3.5 8.5 3.72667 8.5 4V12C8.5 12.2733 8.27333 12.5 8 12.5Z" fill="#292D32"/>
<path d="M8 12.5V11C8.55509 11 9 11.4449 9 12H7.5H6C6 13.1018 6.89824 14 8 14V12.5ZM7.5 12H9V4H7.5H6V12H7.5ZM7.5 4H9C9 4.55509 8.55509 5 8 5V3.5V2C6.89824 2 6 2.89824 6 4H7.5ZM8 3.5V5C7.44491 5 7 4.55509 7 4H8.5H10C10 2.89824 9.10176 2 8 2V3.5ZM8.5 4H7V12H8.5H10V4H8.5ZM8.5 12H7C7 11.4449 7.44491 11 8 11V12.5V14C9.10176 14 10 13.1018 10 12H8.5Z" fill="#292D32" mask="url(#path-3-inside-2_318_33720)"/>
<path d="M8.00004 15.1673C4.04671 15.1673 0.833374 11.954 0.833374 8.00065C0.833374 4.04732 4.04671 0.833984 8.00004 0.833984C11.9534 0.833984 15.1667 4.04732 15.1667 8.00065C15.1667 11.954 11.9534 15.1673 8.00004 15.1673ZM8.00004 1.83398C4.60004 1.83398 1.83337 4.60065 1.83337 8.00065C1.83337 11.4007 4.60004 14.1673 8.00004 14.1673C11.4 14.1673 14.1667 11.4007 14.1667 8.00065C14.1667 4.60065 11.4 1.83398 8.00004 1.83398Z" fill="#292D32"/>
</svg>
