<svg width="16" height="17" viewBox="0 0 16 17" fill="none" xmlns="http://www.w3.org/2000/svg">
<path d="M8.83958 2.9008L3.36624 8.69413C3.15958 8.91413 2.95958 9.34746 2.91958 9.64746L2.67291 11.8075C2.58624 12.5875 3.14624 13.1208 3.91958 12.9875L6.06624 12.6208C6.36624 12.5675 6.78624 12.3475 6.99291 12.1208L12.4662 6.32746C13.4129 5.32746 13.8396 4.18746 12.3662 2.79413C10.8996 1.41413 9.78624 1.9008 8.83958 2.9008Z" fill="#737373" fill-opacity="0.15" stroke="#737373" stroke-miterlimit="10" stroke-linecap="round" stroke-linejoin="round"/>
<g opacity="0.4">
<path d="M7.92773 3.86719C8.2144 5.70719 9.70773 7.11385 11.5611 7.30052Z" fill="#737373"/>
<path d="M7.92773 3.86719C8.2144 5.70719 9.70773 7.11385 11.5611 7.30052" stroke="#737373" stroke-miterlimit="10" stroke-linecap="round" stroke-linejoin="round"/>
</g>
<path opacity="0.4" d="M2 15.168H14" stroke="#292D32" stroke-miterlimit="10" stroke-linecap="round" stroke-linejoin="round"/>
</svg>
