<svg width="24" height="24" viewBox="0 0 24 24" fill="none" xmlns="http://www.w3.org/2000/svg">
<path d="M17.25 18.25V19.25C17.25 20.3546 16.3546 21.25 15.25 21.25H6.75C5.64543 21.25 4.75 20.3546 4.75 19.25V7.75C4.75 6.64543 5.64543 5.75 6.75 5.75H7.75M15.25 2.75H9.75C8.64543 2.75 7.75 3.64543 7.75 4.75V16.25C7.75 17.3546 8.64543 18.25 9.75 18.25H18.25C19.3546 18.25 20.25 17.3546 20.25 16.25V7.75M15.25 2.75L20.25 7.75M15.25 2.75V5.75C15.25 6.85457 16.1454 7.75 17.25 7.75H20.25" stroke="black" stroke-width="1.5" stroke-linecap="round" stroke-linejoin="round"/>
</svg>
