<svg width="16" height="16" viewBox="0 0 16 16" fill="none" xmlns="http://www.w3.org/2000/svg">
<path d="M7.99951 1.16699C9.66837 1.16699 11.0387 2.48519 11.1226 4.13379L11.1265 4.29395C11.1198 5.98931 9.79378 7.3598 8.11572 7.41406H8.05322C8.01461 7.41079 7.97595 7.41022 7.93896 7.41309C6.18572 7.3565 4.87256 5.98379 4.87256 4.29395C4.87258 2.5714 6.27697 1.16701 7.99951 1.16699ZM7.99951 1.50098C6.46211 1.501 5.20656 2.75655 5.20654 4.29395C5.20654 5.80683 6.38835 7.02687 7.89404 7.08008L7.93311 7.08203L7.96143 7.0752C7.96835 7.07484 7.97888 7.0752 7.99268 7.0752C8.02229 7.0752 8.05922 7.07738 8.09424 7.08008L8.11475 7.08105L8.13525 7.08008C9.62066 7.01165 10.7848 5.79143 10.7925 4.2959V4.29395C10.7925 2.75654 9.53693 1.50098 7.99951 1.50098Z" fill="#111111" stroke="#111111" stroke-width="0.666667"/>
<path d="M8.11816 8.62402C9.37554 8.62404 10.6138 8.94431 11.541 9.56348H11.542C12.3928 10.1308 12.826 10.8766 12.8262 11.6523C12.8262 12.4298 12.3978 13.1819 11.542 13.7549C10.6076 14.3778 9.36836 14.6992 8.11328 14.6992C6.85752 14.6992 5.61251 14.378 4.68555 13.7559L4.68359 13.7549L4.52832 13.6465C3.77603 13.095 3.39941 12.3945 3.39941 11.666C3.39941 10.8883 3.82818 10.1355 4.68457 9.5625C5.61885 8.94312 6.86126 8.62402 8.11816 8.62402ZM8.11328 8.96289C6.94961 8.96289 5.76562 9.25033 4.86816 9.84863C4.16942 10.3145 3.7334 10.9526 3.7334 11.6729C3.73347 12.3876 4.17802 13.0237 4.86719 13.4814V13.4824C5.76476 14.0844 6.94924 14.374 8.11328 14.374C9.27695 14.374 10.46 14.084 11.3574 13.4824L11.3584 13.4834C12.057 13.0176 12.4932 12.3793 12.4932 11.6592C12.4931 10.9438 12.0477 10.3065 11.3574 9.84863H11.3584C10.461 9.25036 9.27689 8.96292 8.11328 8.96289Z" fill="#111111" stroke="#111111" stroke-width="0.666667"/>
</svg>
