<svg width="16" height="16" viewBox="0 0 16 16" fill="none" xmlns="http://www.w3.org/2000/svg">
<path d="M6.00031 1.16699H10.0003C11.7719 1.16704 12.957 1.54753 13.7054 2.2959C14.4536 3.04433 14.8333 4.2295 14.8333 6.00098V10.001C14.8333 11.7725 14.4538 12.9577 13.7054 13.7061C12.957 14.4544 11.7719 14.8339 10.0003 14.834H6.00031C4.22883 14.834 3.04366 14.4543 2.29523 13.7061C1.54686 12.9577 1.16637 11.7725 1.16632 10.001V6.00098C1.16632 4.22924 1.54681 3.04431 2.29523 2.2959C3.04364 1.54748 4.22857 1.16699 6.00031 1.16699ZM6.00031 1.50098C4.44012 1.50098 3.28304 1.77488 2.52863 2.5293C1.77421 3.28371 1.50031 4.44079 1.50031 6.00098V10.001C1.50034 11.561 1.77426 12.7183 2.52863 13.4727C3.28305 14.2268 4.44034 14.501 6.00031 14.501H10.0003C11.5603 14.5009 12.7176 14.227 13.472 13.4727C14.2263 12.7183 14.5003 11.561 14.5003 10.001V6.00098C14.5003 4.44102 14.2262 3.28372 13.472 2.5293C12.7176 1.77493 11.5603 1.50101 10.0003 1.50098H6.00031Z" fill="#292D32" stroke="#292D32" stroke-width="0.666667"/>
<path d="M6.66669 1.16699C6.75593 1.16699 6.83368 1.24475 6.83368 1.33398V14.667C6.83368 14.7562 6.75593 14.834 6.66669 14.834C6.57745 14.834 6.49969 14.7562 6.49969 14.667V1.33398C6.49969 1.24475 6.57745 1.16699 6.66669 1.16699Z" fill="#292D32" stroke="#292D32" stroke-width="0.666667"/>
<path d="M14.6667 8.5H6.66669C6.39335 8.5 6.16669 8.27333 6.16669 8C6.16669 7.72667 6.39335 7.5 6.66669 7.5H14.6667C14.94 7.5 15.1667 7.72667 15.1667 8C15.1667 8.27333 14.94 8.5 14.6667 8.5Z" fill="#292D32"/>
</svg>
