<svg width="16" height="16" viewBox="0 0 16 16" fill="none" xmlns="http://www.w3.org/2000/svg">
<mask id="path-1-inside-1_318_33741" fill="white">
<path d="M11 12.1673H9.99329C9.71995 12.1673 9.49329 11.9407 9.49329 11.6673C9.49329 11.394 9.71995 11.1673 9.99329 11.1673H11C12.7466 11.1673 14.1666 9.74732 14.1666 8.00065C14.1666 6.25398 12.7466 4.83398 11 4.83398H9.99995C9.72662 4.83398 9.49995 4.60732 9.49995 4.33398C9.49995 4.06065 9.71995 3.83398 9.99995 3.83398H11C13.3 3.83398 15.1666 5.70065 15.1666 8.00065C15.1666 10.3007 13.3 12.1673 11 12.1673Z"/>
</mask>
<path d="M11 12.1673H9.99329C9.71995 12.1673 9.49329 11.9407 9.49329 11.6673C9.49329 11.394 9.71995 11.1673 9.99329 11.1673H11C12.7466 11.1673 14.1666 9.74732 14.1666 8.00065C14.1666 6.25398 12.7466 4.83398 11 4.83398H9.99995C9.72662 4.83398 9.49995 4.60732 9.49995 4.33398C9.49995 4.06065 9.71995 3.83398 9.99995 3.83398H11C13.3 3.83398 15.1666 5.70065 15.1666 8.00065C15.1666 10.3007 13.3 12.1673 11 12.1673Z" fill="#292D32"/>
<path d="M11 12.1673V10.6673H9.99329V12.1673V13.6673H11V12.1673ZM9.99329 12.1673V10.6673C10.5484 10.6673 10.9933 11.1122 10.9933 11.6673H9.49329H7.99329C7.99329 12.7691 8.89153 13.6673 9.99329 13.6673V12.1673ZM9.49329 11.6673H10.9933C10.9933 12.2224 10.5484 12.6673 9.99329 12.6673V11.1673V9.66732C8.89153 9.66732 7.99329 10.5656 7.99329 11.6673H9.49329ZM9.99329 11.1673V12.6673H11V11.1673V9.66732H9.99329V11.1673ZM11 11.1673V12.6673C13.575 12.6673 15.6666 10.5757 15.6666 8.00065H14.1666H12.6666C12.6666 8.91889 11.9182 9.66732 11 9.66732V11.1673ZM14.1666 8.00065H15.6666C15.6666 5.42556 13.575 3.33398 11 3.33398V4.83398V6.33398C11.9182 6.33398 12.6666 7.08241 12.6666 8.00065H14.1666ZM11 4.83398V3.33398H9.99995V4.83398V6.33398H11V4.83398ZM9.99995 4.83398V3.33398C10.555 3.33398 11 3.77889 11 4.33398H9.49995H7.99995C7.99995 5.43574 8.89819 6.33398 9.99995 6.33398V4.83398ZM9.49995 4.33398H11C11 4.87601 10.5614 5.33398 9.99995 5.33398V3.83398V2.33398C8.87852 2.33398 7.99995 3.24529 7.99995 4.33398H9.49995ZM9.99995 3.83398V5.33398H11V3.83398V2.33398H9.99995V3.83398ZM11 3.83398V5.33398C12.4715 5.33398 13.6666 6.52908 13.6666 8.00065H15.1666H16.6666C16.6666 4.87222 14.1284 2.33398 11 2.33398V3.83398ZM15.1666 8.00065H13.6666C13.6666 9.47222 12.4715 10.6673 11 10.6673V12.1673V13.6673C14.1284 13.6673 16.6666 11.1291 16.6666 8.00065H15.1666Z" fill="#292D32" mask="url(#path-1-inside-1_318_33741)"/>
<mask id="path-3-inside-2_318_33741" fill="white">
<path d="M6.00004 12.1673H5.00004C2.70004 12.1673 0.833374 10.3007 0.833374 8.00065C0.833374 5.70065 2.70004 3.83398 5.00004 3.83398H6.00004C6.27337 3.83398 6.50004 4.06065 6.50004 4.33398C6.50004 4.60732 6.27337 4.83398 6.00004 4.83398H5.00004C3.25337 4.83398 1.83337 6.25398 1.83337 8.00065C1.83337 9.74732 3.25337 11.1673 5.00004 11.1673H6.00004C6.27337 11.1673 6.50004 11.394 6.50004 11.6673C6.50004 11.9407 6.27337 12.1673 6.00004 12.1673Z"/>
</mask>
<path d="M6.00004 12.1673H5.00004C2.70004 12.1673 0.833374 10.3007 0.833374 8.00065C0.833374 5.70065 2.70004 3.83398 5.00004 3.83398H6.00004C6.27337 3.83398 6.50004 4.06065 6.50004 4.33398C6.50004 4.60732 6.27337 4.83398 6.00004 4.83398H5.00004C3.25337 4.83398 1.83337 6.25398 1.83337 8.00065C1.83337 9.74732 3.25337 11.1673 5.00004 11.1673H6.00004C6.27337 11.1673 6.50004 11.394 6.50004 11.6673C6.50004 11.9407 6.27337 12.1673 6.00004 12.1673Z" fill="#292D32"/>
<path d="M6.00004 12.1673V10.6673H5.00004V12.1673V13.6673H6.00004V12.1673ZM5.00004 12.1673V10.6673C3.52847 10.6673 2.33337 9.47222 2.33337 8.00065H0.833374H-0.666626C-0.666626 11.1291 1.87161 13.6673 5.00004 13.6673V12.1673ZM0.833374 8.00065H2.33337C2.33337 6.52908 3.52847 5.33398 5.00004 5.33398V3.83398V2.33398C1.87161 2.33398 -0.666626 4.87222 -0.666626 8.00065H0.833374ZM5.00004 3.83398V5.33398H6.00004V3.83398V2.33398H5.00004V3.83398ZM6.00004 3.83398V5.33398C5.44495 5.33398 5.00004 4.88908 5.00004 4.33398H6.50004H8.00004C8.00004 3.23222 7.1018 2.33398 6.00004 2.33398V3.83398ZM6.50004 4.33398H5.00004C5.00004 3.77889 5.44495 3.33398 6.00004 3.33398V4.83398V6.33398C7.1018 6.33398 8.00004 5.43574 8.00004 4.33398H6.50004ZM6.00004 4.83398V3.33398H5.00004V4.83398V6.33398H6.00004V4.83398ZM5.00004 4.83398V3.33398C2.42495 3.33398 0.333374 5.42556 0.333374 8.00065H1.83337H3.33337C3.33337 7.08241 4.0818 6.33398 5.00004 6.33398V4.83398ZM1.83337 8.00065H0.333374C0.333374 10.5757 2.42495 12.6673 5.00004 12.6673V11.1673V9.66732C4.0818 9.66732 3.33337 8.91889 3.33337 8.00065H1.83337ZM5.00004 11.1673V12.6673H6.00004V11.1673V9.66732H5.00004V11.1673ZM6.00004 11.1673V12.6673C5.44495 12.6673 5.00004 12.2224 5.00004 11.6673H6.50004H8.00004C8.00004 10.5656 7.1018 9.66732 6.00004 9.66732V11.1673ZM6.50004 11.6673H5.00004C5.00004 11.1122 5.44495 10.6673 6.00004 10.6673V12.1673V13.6673C7.1018 13.6673 8.00004 12.7691 8.00004 11.6673H6.50004Z" fill="#292D32" mask="url(#path-3-inside-2_318_33741)"/>
<path d="M10.6667 8.5H5.33337C5.06004 8.5 4.83337 8.27333 4.83337 8C4.83337 7.72667 5.06004 7.5 5.33337 7.5H10.6667C10.94 7.5 11.1667 7.72667 11.1667 8C11.1667 8.27333 10.94 8.5 10.6667 8.5Z" fill="#292D32"/>
</svg>
