<svg width="16" height="16" viewBox="0 0 16 16" fill="none" xmlns="http://www.w3.org/2000/svg">
<path d="M11.3333 8.93268V10.9327C11.3333 13.5993 10.2666 14.666 7.59998 14.666H5.06665C2.39998 14.666 1.33331 13.5993 1.33331 10.9327V8.39935C1.33331 5.73268 2.39998 4.66602 5.06665 4.66602H7.06665" stroke="#292D32" stroke-linecap="round" stroke-linejoin="round"/>
<path d="M11.3334 8.93268H9.20004C7.60004 8.93268 7.06671 8.39935 7.06671 6.79935V4.66602L11.3334 8.93268Z" stroke="#292D32" stroke-linecap="round" stroke-linejoin="round"/>
<path d="M7.7334 1.33398H10.4001" stroke="#292D32" stroke-linecap="round" stroke-linejoin="round"/>
<path d="M4.66669 3.33398C4.66669 2.22732 5.56002 1.33398 6.66669 1.33398H8.41335" stroke="#292D32" stroke-linecap="round" stroke-linejoin="round"/>
<path d="M14.6666 5.33398V9.46065C14.6666 10.494 13.8266 11.334 12.7933 11.334" stroke="#292D32" stroke-linecap="round" stroke-linejoin="round"/>
<path d="M14.6667 5.33398H12.6667C11.1667 5.33398 10.6667 4.83398 10.6667 3.33398V1.33398L14.6667 5.33398Z" stroke="#292D32" stroke-linecap="round" stroke-linejoin="round"/>
</svg>
