<svg width="16" height="16" viewBox="0 0 16 16" fill="none" xmlns="http://www.w3.org/2000/svg">
<path d="M7.94792 15.1673C4.00125 15.1673 0.78125 11.954 0.78125 8.00065C0.78125 4.04732 4.00125 0.833984 7.94792 0.833984C11.8946 0.833984 15.1146 4.04732 15.1146 8.00065C15.1146 11.954 11.9012 15.1673 7.94792 15.1673ZM7.94792 1.83398C4.54792 1.83398 1.78125 4.60065 1.78125 8.00065C1.78125 11.4007 4.54792 14.1673 7.94792 14.1673C11.3479 14.1673 14.1146 11.4007 14.1146 8.00065C14.1146 4.60065 11.3479 1.83398 7.94792 1.83398Z" fill="#292D32"/>
<path d="M10.6146 8.5H5.28125C5.00792 8.5 4.78125 8.27333 4.78125 8C4.78125 7.72667 5.00792 7.5 5.28125 7.5H10.6146C10.8879 7.5 11.1146 7.72667 11.1146 8C11.1146 8.27333 10.8946 8.5 10.6146 8.5Z" fill="#292D32"/>
</svg>
