<svg width="16" height="16" viewBox="0 0 16 16" fill="none" xmlns="http://www.w3.org/2000/svg">
<path d="M3.33301 6.49902C4.16214 6.49902 4.83283 7.16994 4.83301 7.99902C4.83301 8.82826 4.16225 9.49902 3.33301 9.49902C2.50392 9.49885 1.83301 8.82815 1.83301 7.99902C1.83318 7.17004 2.50403 6.4992 3.33301 6.49902ZM3.33301 6.83301C2.68917 6.83318 2.16717 7.35519 2.16699 7.99902C2.16699 8.64301 2.68906 9.16584 3.33301 9.16602C3.9771 9.16602 4.5 8.64312 4.5 7.99902C4.49982 7.35508 3.97699 6.83301 3.33301 6.83301Z" fill="#292D32" stroke="#292D32" stroke-width="0.666667"/>
<path d="M12.6663 6.49902C13.4955 6.49902 14.1661 7.16994 14.1663 7.99902C14.1663 8.82826 13.4956 9.49902 12.6663 9.49902C11.8372 9.49885 11.1663 8.82815 11.1663 7.99902C11.1665 7.17004 11.8373 6.4992 12.6663 6.49902ZM12.6663 6.83301C12.0225 6.83318 11.5005 7.35519 11.5003 7.99902C11.5003 8.64301 12.0224 9.16584 12.6663 9.16602C13.3104 9.16602 13.8333 8.64312 13.8333 7.99902C13.8331 7.35508 13.3103 6.83301 12.6663 6.83301Z" fill="#292D32" stroke="#292D32" stroke-width="0.666667"/>
<path d="M8.00002 9.83268C6.98669 9.83268 6.16669 9.01268 6.16669 7.99935C6.16669 6.98602 6.98669 6.16602 8.00002 6.16602C9.01335 6.16602 9.83335 6.98602 9.83335 7.99935C9.83335 9.01268 9.01335 9.83268 8.00002 9.83268ZM8.00002 7.16602C7.54002 7.16602 7.16669 7.53935 7.16669 7.99935C7.16669 8.45935 7.54002 8.83268 8.00002 8.83268C8.46002 8.83268 8.83335 8.45935 8.83335 7.99935C8.83335 7.53935 8.46002 7.16602 8.00002 7.16602Z" fill="#292D32"/>
</svg>
