<svg width="16" height="17" viewBox="0 0 16 17" fill="none" xmlns="http://www.w3.org/2000/svg">
<path d="M14.4402 7.46033L13.7868 10.247C13.2268 12.6537 12.1202 13.627 10.0402 13.427C9.70683 13.4003 9.34683 13.3403 8.96016 13.247L7.84016 12.9803C5.06016 12.3203 4.20016 10.947 4.85349 8.16033L5.50683 5.367C5.64016 4.80033 5.80016 4.307 6.00016 3.90033C6.78016 2.287 8.10683 1.85366 10.3335 2.38033L11.4468 2.64033C14.2402 3.29366 15.0935 4.67366 14.4402 7.46033Z" fill="#737373" fill-opacity="0.15" stroke="#737373" stroke-linecap="round" stroke-linejoin="round"/>
<path d="M10.0399 13.4271C9.62653 13.7071 9.10653 13.9404 8.47319 14.1471L7.41986 14.4937C4.77319 15.3471 3.37986 14.6337 2.51986 11.9871L1.66653 9.35372C0.813195 6.70706 1.51986 5.30706 4.16653 4.45372L5.21986 4.10706C5.49319 4.02039 5.75319 3.94706 5.99986 3.90039C5.79986 4.30706 5.63986 4.80039 5.50653 5.36706L4.85319 8.16039C4.19986 10.9471 5.05986 12.3204 7.83986 12.9804L8.95986 13.2471C9.34653 13.3404 9.70653 13.4004 10.0399 13.4271Z" stroke="#737373" stroke-linecap="round" stroke-linejoin="round"/>
<path d="M8.42676 6.18555L11.6601 7.00555" stroke="#737373" stroke-linecap="round" stroke-linejoin="round"/>
<path d="M7.77344 8.76758L9.70677 9.26091" stroke="#737373" stroke-linecap="round" stroke-linejoin="round"/>
</svg>
