<svg width="24" height="24" viewBox="0 0 24 24" fill="none" xmlns="http://www.w3.org/2000/svg">
<path d="M17.7501 19.25H20.3461C21.509 19.25 22.4524 18.2489 22.1339 17.1305C21.4009 14.557 19.669 12.75 17.0001 12.75C16.5541 12.75 16.1342 12.8005 15.7407 12.8966M11.25 7C11.25 8.79493 9.79497 10.25 8.00004 10.25C6.20512 10.25 4.75004 8.79493 4.75004 7C4.75004 5.20507 6.20512 3.75 8.00004 3.75C9.79497 3.75 11.25 5.20507 11.25 7ZM19.75 7.5C19.75 9.01878 18.5188 10.25 17 10.25C15.4812 10.25 14.25 9.01878 14.25 7.5C14.25 5.98122 15.4812 4.75 17 4.75C18.5188 4.75 19.75 5.98122 19.75 7.5ZM2.08131 18.126C2.85993 14.9867 4.8589 12.75 8.00004 12.75C11.1412 12.75 13.1401 14.9867 13.9187 18.126C14.1985 19.2539 13.2605 20.25 12.0984 20.25H3.90162C2.7396 20.25 1.80158 19.2539 2.08131 18.126Z" stroke="black" stroke-width="1.5" stroke-linecap="round" stroke-linejoin="round"/>
</svg>
