<svg width="20" height="20" viewBox="0 0 20 20" fill="none" xmlns="http://www.w3.org/2000/svg">
<path d="M11 9.5V2.5C11 1.94772 11.4477 1.5 12 1.5H16C16.5523 1.5 17 1.94772 17 2.5V9.5M11.0039 5.5H13.0039M3.00391 9.5V4.70156C3.00391 4.24742 3.15847 3.8068 3.44217 3.45217L4.69156 1.89043C4.88898 1.64366 5.18788 1.5 5.50391 1.5C5.81994 1.5 6.11883 1.64366 6.31625 1.89043L7.56564 3.45217C7.84934 3.8068 8.0039 4.24742 8.0039 4.70156V9.5M1 9.5H19V16.5C19 17.6046 18.1046 18.5 17 18.5H3C1.89543 18.5 1 17.6046 1 16.5V9.5Z" stroke="black" stroke-width="2" stroke-linecap="round" stroke-linejoin="round"/>
</svg>
