<svg width="16" height="16" viewBox="0 0 16 16" fill="none" xmlns="http://www.w3.org/2000/svg">
<path d="M1.33331 6.00065V4.33398C1.33331 2.67398 2.67331 1.33398 4.33331 1.33398H5.99998" stroke="#292D32" stroke-linecap="round" stroke-linejoin="round"/>
<path d="M10 1.33398H11.6667C13.3267 1.33398 14.6667 2.67398 14.6667 4.33398V6.00065" stroke="#292D32" stroke-linecap="round" stroke-linejoin="round"/>
<path d="M14.6667 10.666V11.666C14.6667 13.326 13.3267 14.666 11.6667 14.666H10.6667" stroke="#292D32" stroke-linecap="round" stroke-linejoin="round"/>
<path d="M5.99998 14.6667H4.33331C2.67331 14.6667 1.33331 13.3267 1.33331 11.6667V10" stroke="#292D32" stroke-linecap="round" stroke-linejoin="round"/>
<path d="M11.3334 6.33398V9.66732C11.3334 11.0007 10.6667 11.6673 9.33335 11.6673H6.66669C5.33335 11.6673 4.66669 11.0007 4.66669 9.66732V6.33398C4.66669 5.00065 5.33335 4.33398 6.66669 4.33398H9.33335C10.6667 4.33398 11.3334 5.00065 11.3334 6.33398Z" stroke="#292D32" stroke-linecap="round" stroke-linejoin="round"/>
<path d="M12.6666 8H3.33331" stroke="#292D32" stroke-linecap="round" stroke-linejoin="round"/>
</svg>
