<svg width="16" height="16" viewBox="0 0 16 16" fill="none" xmlns="http://www.w3.org/2000/svg">
<path d="M7.99121 1.24121C8.39585 1.24127 8.78491 1.33356 9.07324 1.50098L9.07422 1.50195L12.7412 3.61426C13.5033 4.12819 13.8233 4.37445 13.9863 4.65527C14.1433 4.92568 14.1738 5.26347 14.1738 6.07324V9.91992C14.1738 10.7303 14.1445 11.0685 13.9912 11.3379C13.8334 11.615 13.5234 11.857 12.7793 12.3613L9.09375 14.4912C8.79483 14.6625 8.40221 14.7529 8.00098 14.7529C7.59862 14.7529 7.20676 14.6622 6.91602 14.4922L6.91406 14.4912L3.25977 12.3848C2.49818 11.8712 2.17864 11.6245 2.01562 11.3438C1.85881 11.0734 1.82715 10.736 1.82715 9.92676V6.07324C1.82715 5.26273 1.85742 4.92468 2.01074 4.65527C2.16892 4.3775 2.47871 4.13367 3.22656 3.62695L6.90723 1.50195L6.9082 1.50098C7.19664 1.33346 7.58637 1.24121 7.99121 1.24121ZM8.00098 1.58008C7.68894 1.58008 7.35004 1.63733 7.08691 1.79102L3.4209 3.91113L3.41016 3.91699L3.40137 3.92383C3.13397 4.10428 2.91701 4.24925 2.75195 4.37988C2.58493 4.51208 2.44676 4.64742 2.34863 4.81641C2.24847 4.98909 2.20622 5.17089 2.18652 5.37012C2.16757 5.562 2.16699 5.79483 2.16699 6.07324V9.91992C2.16699 10.1982 2.16707 10.4314 2.18652 10.624C2.20679 10.8245 2.25033 11.0068 2.35254 11.1807C2.45233 11.3503 2.5934 11.4865 2.76367 11.6211C2.93219 11.7543 3.15358 11.9034 3.42773 12.0889L3.4375 12.0957L3.44727 12.1016L7.08789 14.2021C7.35121 14.3538 7.69092 14.417 8.00391 14.417C8.27787 14.417 8.57257 14.3686 8.81836 14.2549L8.9209 14.2021L12.5879 12.082L12.5977 12.0762L12.6084 12.0693C12.8741 11.8889 13.0888 11.743 13.2529 11.6123C13.4191 11.48 13.5568 11.3448 13.6543 11.1758C13.7538 11.0033 13.7959 10.822 13.8154 10.623C13.8343 10.4313 13.834 10.1984 13.834 9.91992V6.07324C13.834 5.79503 13.8349 5.56175 13.8154 5.36914C13.7952 5.16875 13.7516 4.98628 13.6494 4.8125C13.5497 4.64287 13.4085 4.50663 13.2383 4.37207C13.0698 4.23887 12.8484 4.08883 12.5742 3.90332L12.5645 3.89746L12.5537 3.8916L8.91406 1.79102C8.65105 1.63756 8.31278 1.5801 8.00098 1.58008Z" fill="#292D32" stroke="#292D32" stroke-width="0.666667"/>
<path d="M8 5.83301C9.19591 5.83301 10.167 6.8041 10.167 8C10.167 9.19591 9.19591 10.167 8 10.167C6.8041 10.167 5.83301 9.19591 5.83301 8C5.83301 6.8041 6.8041 5.83301 8 5.83301ZM8 6.16699C6.98924 6.16699 6.16699 6.98924 6.16699 8C6.16699 9.01076 6.98924 9.83301 8 9.83301C9.01076 9.83301 9.83301 9.01076 9.83301 8C9.83301 6.98924 9.01076 6.16699 8 6.16699Z" fill="#292D32" stroke="#292D32" stroke-width="0.666667"/>
</svg>
