<svg width="16" height="17" viewBox="0 0 16 17" fill="none" xmlns="http://www.w3.org/2000/svg">
<path d="M3.34045 4.18457C6.41727 3.87227 9.53456 3.93879 12.6696 4.19629L14.0143 4.31836C14.1017 4.32689 14.1708 4.4082 14.1617 4.50098L14.1608 4.50781C14.1544 4.5876 14.0851 4.65332 13.9996 4.65332H13.9694C10.6548 4.32165 7.3361 4.18277 4.03967 4.45996L3.37952 4.52148L2.02112 4.65332C1.92112 4.66256 1.84053 4.59403 1.83167 4.50098C1.82487 4.42797 1.86077 4.36679 1.91663 4.33691L1.97913 4.31836L3.33948 4.18457H3.34045Z" fill="#EE0000" fill-opacity="0.15" stroke="#EE0000" stroke-width="0.666667"/>
<path d="M7.12695 1.66699H8.87305C9.58378 1.66699 9.90024 1.8731 10.0635 2.07812C10.2452 2.30639 10.2985 2.6017 10.3506 2.9209L10.3516 2.92285L10.498 3.79004C10.5141 3.88412 10.4473 3.96596 10.3701 3.97754L10.3633 3.97852C10.2695 3.99429 10.1875 3.92853 10.1758 3.85156L10.1748 3.84473L10.0283 2.97852C10.0062 2.84129 9.98435 2.70494 9.95215 2.59082C9.91859 2.47203 9.86424 2.33834 9.75098 2.22949C9.63576 2.11885 9.49492 2.06677 9.35547 2.04004C9.22022 2.01414 9.06027 2.00684 8.87988 2.00684H7.13281C6.95433 2.00684 6.79603 2.01269 6.66309 2.03613C6.52632 2.06025 6.38458 2.10826 6.26758 2.21777C6.15215 2.32581 6.09724 2.46002 6.06348 2.57812C6.03084 2.69232 6.0081 2.83089 5.98438 2.97168L5.83203 3.83594L5.83105 3.84082C5.8178 3.92208 5.7471 3.98024 5.66699 3.98047H5.64551L5.6377 3.97852L5.57617 3.9541C5.52227 3.91816 5.49131 3.85185 5.50195 3.79102V3.78906L5.64844 2.91602V2.91504C5.70398 2.58182 5.75939 2.29009 5.93945 2.06738C6.10126 1.86747 6.41604 1.66699 7.12695 1.66699Z" fill="#EE0000" stroke="#EE0000" stroke-width="0.666667"/>
<path d="M10.14 15.6657H5.85997C3.53331 15.6657 3.43997 14.3791 3.36664 13.3391L2.93331 6.62574C2.91331 6.35241 3.12664 6.11241 3.39997 6.09241C3.67997 6.07907 3.91331 6.28574 3.93331 6.55907L4.36664 13.2724C4.43997 14.2857 4.46664 14.6657 5.85997 14.6657H10.14C11.54 14.6657 11.5666 14.2857 11.6333 13.2724L12.0666 6.55907C12.0866 6.28574 12.3266 6.07907 12.6 6.09241C12.8733 6.11241 13.0866 6.34574 13.0666 6.62574L12.6333 13.3391C12.56 14.3791 12.4666 15.6657 10.14 15.6657Z" fill="#EE0000"/>
<path d="M9.10672 12H6.88672C6.61339 12 6.38672 11.7733 6.38672 11.5C6.38672 11.2267 6.61339 11 6.88672 11H9.10672C9.38005 11 9.60672 11.2267 9.60672 11.5C9.60672 11.7733 9.38005 12 9.10672 12Z" fill="#EE0000"/>
<path d="M9.66671 9.33398H6.33337C6.06004 9.33398 5.83337 9.10732 5.83337 8.83398C5.83337 8.56065 6.06004 8.33398 6.33337 8.33398H9.66671C9.94004 8.33398 10.1667 8.56065 10.1667 8.83398C10.1667 9.10732 9.94004 9.33398 9.66671 9.33398Z" fill="#EE0000"/>
</svg>
