<svg width="16" height="16" viewBox="0 0 16 16" fill="none" xmlns="http://www.w3.org/2000/svg">
<path d="M14.0533 5.72067V10.2807C14.0533 11.0273 13.6533 11.7207 13.0066 12.1007L9.04661 14.3873C8.39994 14.7607 7.59994 14.7607 6.94661 14.3873L2.98661 12.1007C2.33994 11.7273 1.93994 11.034 1.93994 10.2807V5.72067C1.93994 4.97401 2.33994 4.28065 2.98661 3.90065L6.94661 1.61398C7.59328 1.24065 8.39327 1.24065 9.04661 1.61398L13.0066 3.90065C13.6533 4.28065 14.0533 4.96734 14.0533 5.72067Z" stroke="#292D32" stroke-linecap="round" stroke-linejoin="round"/>
<path d="M8.00003 7.33321C8.85791 7.33321 9.55336 6.63775 9.55336 5.77987C9.55336 4.92198 8.85791 4.22656 8.00003 4.22656C7.14215 4.22656 6.4467 4.92198 6.4467 5.77987C6.4467 6.63775 7.14215 7.33321 8.00003 7.33321Z" stroke="#292D32" stroke-linecap="round" stroke-linejoin="round"/>
<path d="M10.6667 11.1069C10.6667 9.90689 9.47342 8.93359 8.00008 8.93359C6.52675 8.93359 5.33342 9.90689 5.33342 11.1069" stroke="#292D32" stroke-linecap="round" stroke-linejoin="round"/>
</svg>
