<svg width="24" height="24" viewBox="0 0 24 24" fill="none" xmlns="http://www.w3.org/2000/svg">
<path d="M19.25 21.25H6C5.30964 21.25 4.75 20.6904 4.75 20M4.75 20V4.75C4.75 3.64543 5.64543 2.75 6.75 2.75H19.25V18.75H6C5.30964 18.75 4.75 19.3096 4.75 20ZM11.5 9.25H12.5M9.75 13.75C9.75 13.75 9.75 12.25 12 12.25C14.25 12.25 14.25 13.75 14.25 13.75H9.75ZM13 9.25C13 9.80228 12.5523 10.25 12 10.25C11.4477 10.25 11 9.80228 11 9.25C11 8.69772 11.4477 8.25 12 8.25C12.5523 8.25 13 8.69772 13 9.25Z" stroke="black" stroke-width="1.5" stroke-linecap="round" stroke-linejoin="round"/>
</svg>
