<svg width="23" height="22" viewBox="0 0 23 22" fill="none" xmlns="http://www.w3.org/2000/svg">
<path d="M11.3336 13.7992C12.88 13.7992 14.1336 12.5456 14.1336 10.9992C14.1336 9.45282 12.88 8.19922 11.3336 8.19922C9.78717 8.19922 8.53357 9.45282 8.53357 10.9992C8.53357 12.5456 9.78717 13.7992 11.3336 13.7992Z" stroke="#0071FF" stroke-width="1.4" stroke-miterlimit="10" stroke-linecap="round" stroke-linejoin="round"/>
<path d="M2.00006 11.8204V10.1778C2.00006 9.20709 2.79339 8.40443 3.77339 8.40443C5.46273 8.40443 6.15339 7.20976 5.30406 5.74443C4.81873 4.90443 5.10806 3.81243 5.95739 3.32709L7.57206 2.40309C8.30939 1.96443 9.26139 2.22576 9.70006 2.96309L9.80273 3.14043C10.6427 4.60576 12.0241 4.60576 12.8734 3.14043L12.9761 2.96309C13.4147 2.22576 14.3667 1.96443 15.1041 2.40309L16.7187 3.32709C17.5681 3.81243 17.8574 4.90443 17.3721 5.74443C16.5227 7.20976 17.2134 8.40443 18.9027 8.40443C19.8734 8.40443 20.6761 9.19776 20.6761 10.1778V11.8204C20.6761 12.7911 19.8827 13.5938 18.9027 13.5938C17.2134 13.5938 16.5227 14.7884 17.3721 16.2538C17.8574 17.1031 17.5681 18.1858 16.7187 18.6711L15.1041 19.5951C14.3667 20.0338 13.4147 19.7724 12.9761 19.0351L12.8734 18.8578C12.0334 17.3924 10.6521 17.3924 9.80273 18.8578L9.70006 19.0351C9.26139 19.7724 8.30939 20.0338 7.57206 19.5951L5.95739 18.6711C5.10806 18.1858 4.81873 17.0938 5.30406 16.2538C6.15339 14.7884 5.46273 13.5938 3.77339 13.5938C2.79339 13.5938 2.00006 12.7911 2.00006 11.8204Z" stroke="#0071FF" stroke-width="2.8" stroke-miterlimit="10" stroke-linecap="round" stroke-linejoin="round"/>
</svg>
